<?xml version="1.0" encoding="UTF-8"?>
<svg width="128pt" height="128pt" version="1.1" viewBox="0 0 128 128" xmlns="http://www.w3.org/2000/svg">
 <path d="m86.445 31.637c5.2109-5.2109 5.0312-13.762-0.50391-18.789-5.2109-4.7109-13.352-3.9766-18.328 1.0039l-3.2461 3.2461-3.75-3.75c-5.2109-5.2109-13.762-5.0312-18.789 0.50391-4.7109 5.2109-3.9766 13.352 1.0039 18.328l18.375 18.375c1.7852 1.7852 4.6133 1.7852 6.3984 0l18.879-18.879z" fill="#c89529"/>
 <path d="m40.73 46.586c-1.6016-1.9219-4.4336-2.1484-6.3555-0.59375-1.9219 1.6016-2.2383 4.4336-0.68359 6.3555l10.746 13.441c0.50391 0.64063 0.50391 1.3711 0.45312 1.7852-0.046875 0.36328-0.23047 1.0938-0.96094 1.6016-1.0039 0.73047-2.4258 0.55078-3.1992-0.41016l-16.32-17.191-2.6484-32.73c-0.18359-2.3281-2.1484-4.1602-4.5234-4.1602s-4.3438 1.7852-4.5234 4.1602l-3.7031 42.152c-0.27344 2.7461 0.50391 5.4844 2.1953 7.7266l22.719 22.855-12.57 26.559 29.441 0.36328 11.199-37.762c0.59375-5.0312-0.96094-10.148-4.25-14.035l-16.961-20.113z" fill="#c89529"/>
 <path d="m119.04 60.934-3.7031-42.152c-0.18359-2.3281-2.1953-4.1602-4.5234-4.1602-2.375 0-4.3438 1.8281-4.5234 4.1602l-2.6484 32.73-16.32 17.191c-0.77344 0.96094-2.1953 1.1445-3.1992 0.41016-0.73047-0.50391-0.91406-1.2344-0.96094-1.6016-0.046875-0.36328-0.046875-1.0938 0.45312-1.7852l10.746-13.441c1.5547-1.9648 1.2344-4.8008-0.68359-6.3555-1.9219-1.6016-4.7539-1.3242-6.3555 0.59375l-16.961 20.113c-3.2891 3.8867-4.8438 8.9609-4.25 14.035l11.199 37.762 29.441-0.36328-12.57-26.559 22.719-22.855c1.6445-2.2383 2.4258-4.9844 2.1953-7.7266z" fill="#c89529"/>
</svg>
