<?xml version="1.0" encoding="UTF-8"?>
<svg width="128pt" height="128pt" version="1.1" viewBox="0 0 128 128" xmlns="http://www.w3.org/2000/svg">
 <path d="m66.398 30.539c0.78125 4.3398-0.10156 9.0391-2.3984 12.762 5.6602 18.121 31.859 14.359 32.242-4.6016-0.019532-16.121-21.098-22.582-30.059-9.2188 0.078125 0.33984 0.16016 0.69922 0.21875 1.0586z" fill="#c89529"/>
 <path d="m48.219 50.238c12.281 0.23828 20.578-13.82 14.379-24.441-8.2188-14.758-30.719-8.9609-30.82 7.9805 0 9.0781 7.3789 16.461 16.441 16.461z" fill="#c89529"/>
 <path d="m45.898 90.141-11.84-4.8594v25.441h24.641v-25.141l-6.2812 4c-1.9414 1.2188-4.3789 1.4414-6.5195 0.55859z" fill="#c89529"/>
 <path d="m93.941 67.039v-3.3984c0-3.5586-2.8984-6.4609-6.4609-6.4609h-15.18l-3.3594 2.5391 14.219 10.738z" fill="#c89529"/>
 <path d="m95.219 68.762s-0.078125 0-0.078125 0.019531l-0.94141 0.30078-10.922 3.4414c-0.32031 0.10156-0.66016 0.039062-0.89844-0.16016-6.5195-4.9414-20.238-15.262-26.66-20.121h-15.199c-3.5586 0-6.4609 2.8984-6.4609 6.4609v13.32l0.37891 0.12109 10.398 3.2617 6.6797-5.0391-2.7812-1.5391c-1.1211-0.62109-0.21875-2.3984 0.96094-1.7383 2.6602 1.4414 11.461 6.2617 14.262 7.8008l12.68 8.0391c1.4219 0.89844 3.1602 1.0586 4.6992 0.42187l16.602-6.8008c4.7383-2.0195 2.2617-9.2188-2.7188-7.7812z" fill="#c89529"/>
 <path d="m75.559 84.602-12.621-8-9.4805-5.1992-7.8398 5.8984c-0.23828 0.19922-0.57813 0.26172-0.89844 0.16016-0.019531-0.019532-11.879-3.7188-11.879-3.7617-5.0195-1.3984-7.5586 5.7383-2.7617 7.8008 1.9609 0.80078 14.32 5.8789 16.578 6.8008 1.5391 0.62109 3.3008 0.46094 4.6992-0.42188l7.8984-5.0195 4.7617-3c0.32031-0.21875 0.73828-0.21875 1.0781 0l3.7383 2.3984c0.28125 0.17969 0.46094 0.5 0.46094 0.83984v27.621h24.641v-30.359l-11.84 4.8398c-2.1406 0.87891-4.5781 0.66016-6.5391-0.60156z" fill="#c89529"/>
 <path d="m95.941 82.039v10.441c5.6797-1.1406 5.6797-9.3398 0-10.441z" fill="#c89529"/>
</svg>
