<?xml version="1.0" encoding="UTF-8"?>
<svg width="128pt" height="128pt" version="1.1" viewBox="0 0 128 128" xmlns="http://www.w3.org/2000/svg">
 <path d="m100.85 96.871h-73.215l-10.852 24.73h94.43l-10.359-24.73zm-51.496 14.254h-18.969c-1.0469 0-1.8906-0.84375-1.8906-1.8906s0.84375-1.8906 1.8906-1.8906h18.969c1.0469 0 1.8906 0.84375 1.8906 1.8906s-0.84375 1.8906-1.8906 1.8906zm14.645 7.4336c-5.1406 0-9.3242-4.1836-9.3242-9.3242s4.1836-9.3242 9.3242-9.3242 9.3242 4.1836 9.3242 9.3242-4.1836 9.3242-9.3242 9.3242zm33.617-7.4336h-18.969c-1.0469 0-1.8906-0.84375-1.8906-1.8906s0.84375-1.8906 1.8906-1.8906h18.969c1.0469 0 1.8906 0.84375 1.8906 1.8906s-0.84375 1.8906-1.8906 1.8906z" fill="#c89529"/>
 <path d="m51.363 30.965c-0.78516 0.68359-0.86328 1.8789-0.17969 2.6641 0.375 0.42969 0.89453 0.64453 1.4258 0.64453 0.44141 0 0.88672-0.15625 1.2383-0.46484 4.8047-4.1914 4.8711-9.2734 0.14062-14.766-1.7969-1.9258-2.6562-3.8789-2.4844-5.6445 0.13672-1.3789 0.92188-2.6562 2.2109-3.5898 0.84375-0.60938 1.0352-1.7891 0.42578-2.6367-0.60938-0.84375-1.7891-1.0352-2.6367-0.42578-2.1797 1.5742-3.5156 3.8086-3.7539 6.2852-0.19531 2.0039 0.25 5.1211 3.4297 8.5312 4.1367 4.7969 2.5352 7.3516 0.19141 9.3945z" fill="#c89529"/>
 <path d="m62.754 30.965c-0.78516 0.68359-0.86328 1.8789-0.17969 2.6641 0.375 0.42969 0.89453 0.64453 1.4258 0.64453 0.44141 0 0.88672-0.15625 1.2383-0.46484 4.8047-4.1914 4.8711-9.2734 0.14062-14.766-1.7969-1.9258-2.6562-3.8789-2.4844-5.6445 0.13672-1.3789 0.92188-2.6562 2.2109-3.5898 0.84375-0.60938 1.0352-1.7891 0.42578-2.6367-0.60938-0.84375-1.7891-1.0352-2.6367-0.42578-2.1797 1.5742-3.5156 3.8086-3.7539 6.2852-0.19531 2.0039 0.25 5.1211 3.4297 8.5312 4.1367 4.7969 2.5352 7.3516 0.19141 9.3945z" fill="#c89529"/>
 <path d="m74.141 30.965c-0.78516 0.68359-0.86328 1.8789-0.17969 2.6641 0.375 0.42969 0.89844 0.64453 1.4258 0.64453 0.44141 0 0.88672-0.15625 1.2383-0.46484 4.8047-4.1914 4.8711-9.2734 0.14062-14.766-1.7969-1.9258-2.6562-3.8789-2.4844-5.6445 0.13672-1.3789 0.92188-2.6562 2.2109-3.5898 0.84375-0.60938 1.0352-1.7891 0.42578-2.6367-0.60938-0.84375-1.7969-1.0352-2.6367-0.42578-2.1797 1.5742-3.5156 3.8086-3.7539 6.2852-0.19531 2.0039 0.25 5.1211 3.4297 8.5312 4.1367 4.7969 2.5352 7.3516 0.19141 9.3945z" fill="#c89529"/>
 <path d="m35.812 85.629c0.26562 2.4141 2.3047 4.2305 4.7188 4.2305h46.934c2.4141 0 4.4531-1.8164 4.7188-4.2305l2.0742-18.684h6.6992v-7.1406h-5.9141l0.41406-3.6758c0.19141-1.6367-1.0938-3.0703-2.7461-3.0703h-45.391l-6.4648-20.004c-0.53906-1.7344-2.1562-2.8711-3.8906-2.8711-0.39062 0-0.79688 0.066406-1.1953 0.19141-2.1562 0.65625-3.3594 2.9453-2.6953 5.0859l5.7266 17.602h-3.5195c-1.6484 0-2.9336 1.4336-2.7461 3.0703l0.41406 3.6758h-5.9141v7.1406h6.6992l2.0742 18.684z" fill="#c89529"/>
 <path d="m52.711 42.727c0 2.3867 1.9336 4.3164 4.3164 4.3164 2.3867 0 4.3164-1.9336 4.3164-4.3164 0-2.3867-1.9336-4.3164-4.3164-4.3164-2.3867 0-4.3164 1.9336-4.3164 4.3164z" fill="#c89529"/>
 <path d="m73.105 43.676c0 1.8594 1.5117 3.3711 3.3711 3.3711 1.8594 0 3.3711-1.5117 3.3711-3.3711s-1.5117-3.3711-3.3711-3.3711c-1.8594 0-3.3711 1.5117-3.3711 3.3711z" fill="#c89529"/>
 <path d="m43.047 91.75h41.906v3.2305h-41.906z" fill="#c89529"/>
 <path d="m64 101.8c-1.3711 0-2.6445 0.375-3.7461 1.0195l10.16 10.16c0.64453-1.1016 1.0195-2.3789 1.0195-3.7461 0-4.1055-3.3281-7.4336-7.4336-7.4336z" fill="#c89529"/>
 <path d="m56.566 109.23c0 4.1055 3.3281 7.4336 7.4336 7.4336 1.3711 0 2.6445-0.375 3.7461-1.0195l-10.16-10.16c-0.64453 1.1016-1.0195 2.3789-1.0195 3.7461z" fill="#c89529"/>
</svg>
