<?xml version="1.0" encoding="UTF-8"?>
<svg width="128pt" height="128pt" version="1.1" viewBox="0 0 128 128" xmlns="http://www.w3.org/2000/svg">
 <path d="m34.66 82.352c0 3.4062-2.7734 6.1797-6.1797 6.1797-3.4023 0-6.1719-2.7734-6.1719-6.1797s2.7695-6.1797 6.1719-6.1797c3.4062 0 6.1797 2.7734 6.1797 6.1797zm62.621-6.1797c-3.4102 0-6.1797 2.7734-6.1797 6.1797s2.7695 6.1797 6.1797 6.1797c3.4023 0 6.1719-2.7734 6.1719-6.1797s-2.7656-6.1797-6.1719-6.1797zm27.391 6.9102c0 2.9375-2.3906 5.3281-5.3281 5.3281h-10.434c-2.1914 4.1914-6.5859 7.0586-11.629 7.0586-5.0508 0-9.4453-2.8672-11.637-7.0586h-45.527c-2.1953 4.1914-6.5859 7.0586-11.637 7.0586-5.0469 0-9.4375-2.8672-11.629-7.0586h-8.1953c-2.9375 0-5.3281-2.3906-5.3281-5.3281 0-2.082 1.1992-3.8906 2.9453-4.7695v-14.5c0-0.035156 0-0.070312 0.003906-0.10156-0.003906-0.011719-0.003906-0.023438-0.003906-0.035157 0-0.019531 0-0.039062 0.003906-0.058593 0.082031-2.8438 1.8867-5.4297 4.5469-6.4688 0.011719-0.003907 0.027343-0.007813 0.039062-0.015626 6.6055-2.3984 8.9297-7.0156 11.387-11.902 3.1445-6.2461 6.3906-12.703 18.617-12.703h32.418c6.8164 0 13.32 10.613 19.414 21.707l17.754 2.3398 0.19531 0.027343h0.003906l0.91016 0.12109c5.8047 0.64062 10.176 5.5273 10.176 11.371v10.223c1.7383 0.87891 2.9336 2.6875 2.9336 4.7656zm-110.41-15.984c0-0.96875-0.78906-1.7617-1.7617-1.7617l-2.9141 0.003906v3.5195h2.9141c0.97266 0.003906 1.7617-0.78516 1.7617-1.7617zm24.016 15.254c0-0.84375-0.10547-1.668-0.30859-2.4492v-0.003906c-0.007812-0.039063-0.023437-0.082032-0.035156-0.11719-1.1328-4.1641-4.9414-7.2344-9.4609-7.2344-5.3984 0-9.7969 4.3945-9.7969 9.8008 0 5.4023 4.3945 9.8008 9.7969 9.8008 5.4102 0.003906 9.8047-4.3945 9.8047-9.7969zm11.762-19.18c0-0.91797-0.74609-1.6602-1.6641-1.6602h-4.7109c-0.91406 0-1.6602 0.74219-1.6602 1.6602s0.74609 1.6562 1.6602 1.6562h4.7109c0.91797 0 1.6641-0.73828 1.6641-1.6562zm6.6797-22.293c0-0.91797-0.74219-1.6641-1.6602-1.6641l-14.199 0.003906c-8.543 0-10.523 4.5039-12.629 9.2695-0.25781 0.58594-0.52344 1.1953-0.8125 1.8164-0.69531 1.5117-1.4844 2.9336-2.3438 4.2148-0.33984 0.50781-0.37109 1.168-0.085937 1.7031 0.28906 0.54297 0.85156 0.87891 1.4648 0.87891h28.605c0.91797 0 1.6602-0.74219 1.6602-1.6602zm18.41 22.293c0-0.91797-0.74219-1.6602-1.6602-1.6602h-4.7109c-0.91797 0-1.6602 0.74219-1.6602 1.6602s0.74219 1.6562 1.6602 1.6562h4.7109c0.91406 0 1.6602-0.73828 1.6602-1.6562zm10.121-8.543c-3.5703-6.2969-8.4766-14.066-11.59-15.293-0.19531-0.074219-0.40234-0.11719-0.60937-0.11719h-10.258c-0.91797 0-1.6641 0.74609-1.6641 1.6641v14.562c0 0.91797 0.74609 1.6602 1.6641 1.6602h21.012c0.58984 0 1.1367-0.3125 1.4336-0.82422 0.30078-0.51172 0.30469-1.1406 0.011718-1.6523zm21.824 27.723c0-5.4062-4.3945-9.8008-9.7969-9.8008-4.5195 0-8.332 3.0664-9.4648 7.2344-0.011718 0.039063-0.023437 0.078125-0.035156 0.11719v0.003906c-0.19922 0.78125-0.30469 1.6016-0.30469 2.4492 0 5.4023 4.3945 9.8008 9.8008 9.8008 5.4062-0.003906 9.8008-4.4023 9.8008-9.8047zm11.34-14.254c0-3.8828-2.7227-7.168-6.4531-7.9492v5.4883c0 1.7773 1.4531 3.2227 3.2344 3.2227h3.2188z" fill="#c89529"/>
</svg>
