<?xml version="1.0" encoding="UTF-8"?>
<svg width="128pt" height="128pt" version="1.1" viewBox="0 0 128 128" xmlns="http://www.w3.org/2000/svg">
 <path d="m63.844 51.238c0.65625-1.1445 0.82031-2.3594 0.48047-3.6367l-3.5781-13.355c-0.33594-1.2656-0.074219-2.5469 0.60938-3.5469l10.961-18.98c1.1797-2.0547 3.8047-2.7656 5.8594-1.5781 2.0547 1.1797 2.7656 3.8047 1.5781 5.8555l-10.234 17.73 3.125 11.656c0.33984 1.2734 1.0898 2.25 2.2305 2.9062l10.719 6.1914c2.4219 1.3945 3.2461 1.9141 5.4414 5.6992l7.2891 12.594c1.4883 2.5742-0.039063 5.7812-2.8086 6.3555l-18.664 3.7891c-2.3086 0.46875-4.5898-1.0352-5.0586-3.3438-0.46875-2.3086 1.0352-4.5898 3.3438-5.0586l12.762-2.6055-4.0469-6.9844-3.8984 6.7539-5.1797 1.0586c-3.2891 0.67188-5.4297 3.9141-4.7617 7.2031 0.67188 3.2891 3.9141 5.4297 7.1992 4.7617l7.2305-1.4688 5.7344 3.3086c1.7461 1.0039 2.7344 2.8203 2.7695 4.6992l0.56641 21.574c0.050781 3.0508-2.3867 5.5586-5.4336 5.6055-3.0508 0.050781-5.5586-2.3867-5.6055-5.4336l-0.50391-18.445c-7.5859-4.3789-15.172-8.7617-22.758-13.141l-19.781 34.262c-1.5312 2.6406-4.9141 3.5469-7.5547 2.0156s-3.5469-4.9141-2.0156-7.5547c11.355-19.664 22.73-39.219 33.996-58.887zm20.793-19.289c-4.9453 0-8.9609 4.0117-8.9609 8.9609 0 4.9453 4.0117 8.9609 8.9609 8.9609 4.9453 0 8.9609-4.0117 8.9609-8.9609 0-4.9453-4.0117-8.9609-8.9609-8.9609z" fill="#c89529" fill-rule="evenodd"/>
</svg>
