<?xml version="1.0" encoding="UTF-8"?>
<svg width="128pt" height="128pt" version="1.1" viewBox="0 0 128 128" xmlns="http://www.w3.org/2000/svg">
 <path d="m118.54 58.719c-2.918-3.5195-4.5391-7.957-4.5391-12.539v-8.1797c0-1.1016-0.89844-2-2-2h-4v-12c4.4102 0 8-3.5898 8-8v-4c0-4.4102-3.5898-8-8-8h-34c-1.1055 0-2 0.89453-2 2v2h-6c-1.1055 0-2 0.89453-2 2v8c0 1.1055 0.89453 2 2 2h6v2c0 1.1055 0.89453 2 2 2h2v3.0586c0 5.4727-1.5352 10.82-4.4336 15.461l-5.2617 8.418c-0.52734 0.84375-0.35547 1.9453 0.40234 2.5898 0.375 0.31641 0.83594 0.47266 1.293 0.47266 0.47266 0 0.95312-0.16797 1.3281-0.50391l7.5391-6.6992c6.5742-5.8438 10.496-14.066 11.027-22.797h4.1055v12h-4c-1.1016 0-2 0.89844-2 2v8.1797c0 4.5781-1.6211 9.0195-4.5391 12.539-2.2617 2.7188-3.8789 5.8984-4.7188 9.2812h-18.762c-0.039063-3.1406-1.1992-6.1406-3.3203-8.4805l-0.32031-0.35938c-2.8203-3.1406-3.1016-7.7188-0.67969-11.18 1.5195-2.1797 2.3398-4.7617 2.3398-7.4414v-2.5391c0-5.5195-4.4805-10-10-10v-14c0-1.1016-0.89844-2-2-2h-16c-1.1016 0-2 0.89844-2 2v14c-5.5195 0-10 4.4805-10 10v2.5391c0 2.6797 0.82031 5.2617 2.3398 7.4414 2.4219 3.4609 2.1406 8.0391-0.67969 11.18l-0.32031 0.35938c-2.1211 2.3398-3.2812 5.3398-3.3203 8.4805h-4.0195c-3.3086 0-6 2.6914-6 6s2.6914 6 6 6v24c0 6.6172 5.3828 12 12 12h6.9727l-0.94531 5.6719c-0.097656 0.57812 0.066406 1.1719 0.44531 1.6211 0.38281 0.44922 0.9375 0.70703 1.5273 0.70703h40c0.58984 0 1.1445-0.25781 1.5273-0.70703 0.37891-0.44922 0.54297-1.043 0.44922-1.6211l-0.94922-5.6719h4.9727v6c0 1.1016 0.89844 2 2 2h44c1.1016 0 2-0.89844 2-2v-48.18c0-5.5195-1.9414-10.879-5.4609-15.102zm-46.539-42.719h-4v-4h4zm-6 56v8h-24v-8zm-1.1133 17.672c-1.8711 1.2461-4.2812 1.3945-6.293 0.39062-1.4414-0.71875-3.0195-1.082-4.5977-1.082s-3.1562 0.35938-4.5977 1.0781c-2.0117 1.0039-4.4258 0.85547-6.293-0.39062l-1.1055-0.73828v-4.9297h24v4.9297zm1.1133 16.328v2h-32v-2c0-1.1016 0.89844-2 2-2h28c1.1016 0 2 0.89844 2 2zm-32-90h4v12h-4zm-8 16h20c3.3008 0 6 2.6992 6 6h-6c-1.1055 0-2 0.89453-2 2s0.89453 2 2 2h5.8789c-0.21875 1.3203-0.71875 2.5781-1.5 3.6992-2.1797 3.1016-2.8398 6.8398-2.0391 10.301h-24.68c0.80078-3.4609 0.14062-7.1992-2.0391-10.301-0.78125-1.1211-1.2812-2.3789-1.5-3.6992h9.8789c1.1055 0 2-0.89453 2-2s-0.89453-2-2-2h-10c0-3.3008 2.6992-6 6-6zm-16 44c-1.1016 0-2-0.89844-2-2s0.89844-2 2-2h28v4zm54 44v-2c0-1.1055-0.89453-2-2-2s-2 0.89453-2 2v2h-4v-2c0-1.1055-0.89453-2-2-2s-2 0.89453-2 2v2h-4v-2c0-1.1055-0.89453-2-2-2s-2 0.89453-2 2v2h-4v-2c0-1.1055-0.89453-2-2-2s-2 0.89453-2 2v2h-3.6367l1.3359-8h32.613l1.332 8zm12-46.18v2.1797h-6v-4h6.0586c-0.039063 0.60156-0.058594 1.2188-0.058594 1.8203zm30-25.82h4.0586c0.26172 3.2188 1.1797 6.3594 2.6992 9.1992-2.2188 0.5-4.5 0.67969-6.7617 0.55859zm-10-24h8v12h-8zm6 24v9.1797h-0.019531l-3.9805-0.91797v-8.2617zm-12.059 0h4.0586v7.3789c-1.8984-0.30078-3.8203-0.42188-5.7383-0.35938 0.91797-2.2383 1.4766-4.5977 1.6797-7.0195zm30.059 72h-40v-44h40z" fill="#c89529"/>
 <path d="m102 108h9.6602c-0.82031 2.3203-3.0586 4-5.6602 4h-4c-1.1016 0-2 0.89844-2 2s0.89844 2 2 2h4c5.5195 0 10-4.4805 10-10v-4c0-9.9219-8.0781-18-18-18h-12c-1.1016 0-2 0.89844-2 2v4c0 9.9219 8.0781 18 18 18zm-7.9609-14.398c0.21875-1.0781 1.2617-1.7812 2.3594-1.5586 5.8984 1.1797 11.32 4.1211 15.5 8.3984 0.082031 0.51953 0.10156 1.0391 0.10156 1.5586v2h-2.2383c-3.7188-4.1211-8.6797-6.9414-14.16-8.0391-1.082-0.22266-1.7812-1.2617-1.5625-2.3594z" fill="#c89529"/>
</svg>
