<?xml version="1.0" encoding="UTF-8"?>
<svg width="128pt" height="128pt" version="1.1" viewBox="0 0 128 128" xmlns="http://www.w3.org/2000/svg">
 <path d="m48.887 1.5039c-5.332-0.96875-12.414-1.5039-19.934-1.5039-7.5234 0-14.602 0.53516-19.938 1.5039-8.082 1.4688-9.0156 3.3242-9.0156 4.5898v19.301c0 1.625 1.8477 2.8711 5.8008 3.8945v3.6641c-1.5391 1.0469-5.8008 4.6172-5.8008 12.066v66.289c0 0.73438 0 2.9766 8.9961 4.8086 5.4727 1.1094 12.559 1.7227 19.957 1.7227 7.3945 0 14.484-0.61328 19.957-1.7266 8.9961-1.832 8.9961-4.0703 8.9961-4.8047v-66.289c0-7.4492-4.2617-11.02-5.8008-12.066v-3.6641c3.9492-1.0234 5.8008-2.2695 5.8008-3.8906v-19.305c0-1.2656-0.9375-3.1211-9.0195-4.5898zm-46.855 4.6016c0.019531-0.054688 0.64453-1.4336 7.7578-2.6758 5.168-0.90234 11.973-1.3984 19.164-1.3984 7.1875 0 13.996 0.49609 19.164 1.3984 6.8711 1.1992 7.6875 2.5273 7.75 2.6641-0.066407 0.13672-0.88281 1.4648-7.75 2.6641-5.168 0.90625-11.977 1.4023-19.164 1.4023s-13.996-0.49609-19.164-1.3984c-7.1055-1.2422-7.7344-2.6172-7.7578-2.6523zm53.844 105.19c-0.078125 0.37109-1.6562 1.7031-7.7188 2.8945-5.2969 1.043-12.117 1.6172-19.203 1.6172s-13.906-0.57422-19.203-1.6172c-6.0625-1.1914-7.6445-2.5234-7.7188-2.8828v-2.0977c1.3242 0.70312 3.4805 1.4102 6.9844 2.0469 5.3359 0.96875 12.414 1.5039 19.938 1.5039s14.602-0.53516 19.938-1.5039c3.5039-0.63672 5.6641-1.3477 6.9844-2.0469zm-26.922-74.699c-6.7383 0-13.352-0.52344-18.617-1.4727-0.55078-0.097656-0.91797-0.62891-0.82031-1.1797 0.097656-0.55078 0.62891-0.91797 1.1797-0.82031 5.1523 0.92969 11.637 1.4414 18.258 1.4414s13.105-0.51172 18.254-1.4375c0.55078-0.097656 1.082 0.26953 1.1797 0.82031 0.097656 0.55078-0.26562 1.082-0.82031 1.1797-5.2656 0.94531-11.875 1.4688-18.613 1.4688zm15.887 10.488c-4.7656 0.67969-10.262 1.0352-15.891 1.0352-5.6289 0-11.121-0.35938-15.891-1.0352-0.55469-0.078126-0.94141-0.59375-0.86328-1.1484 0.078126-0.55469 0.59375-0.94141 1.1484-0.86328 4.6758 0.66406 10.07 1.0156 15.602 1.0156 5.5352 0 10.93-0.35156 15.602-1.0156 0.55859-0.082031 1.0703 0.30859 1.1484 0.86328 0.085938 0.55469-0.29687 1.0703-0.85547 1.1484zm11.031 2.6016v48.492c-0.078125 0.37109-1.6602 1.7031-7.7188 2.8945-5.2969 1.043-12.117 1.6172-19.203 1.6172-1.9219 0-3.8633-0.042968-5.7812-0.12891l0.003906-49.051c1.8828 0.085937 3.8242 0.125 5.7812 0.125 7.3945 0 14.48-0.61328 19.957-1.7266 3.5195-0.71484 5.6602-1.4961 6.9609-2.2227zm-5.0156-22.18c-5.2578 1.2422-13.242 1.9531-21.902 1.9531-8.6641 0-16.645-0.71094-21.902-1.9531-4.6406-1.0977-5.0156-2.1094-5.0195-2.1094v-16.762c1.3242 0.70312 3.4805 1.4102 6.9844 2.0469 5.3359 0.97266 12.414 1.5078 19.938 1.5078s14.602-0.53516 19.938-1.5039c3.5039-0.63672 5.6602-1.3477 6.9844-2.0469v16.746c-0.003906 0.007812-0.375 1.0234-5.0195 2.1211z" fill="#c89529"/>
 <path d="m72.789 108.59c-4.7148 0-12.699 0.85547-12.699 4.0625v8.1289c0 3.207 7.9805 4.0625 12.699 4.0625 4.7148 0 12.699-0.85547 12.699-4.0625v-8.1289c0-3.2031-7.9805-4.0625-12.699-4.0625zm1.0156 2.0469c6.0742 0.12891 9.2031 1.4102 9.6289 2.0195-0.42188 0.60938-3.5508 1.8906-9.6289 2.0195zm-2.0312 0v4.0391c-6.0742-0.12891-9.2031-1.4102-9.6289-2.0195 0.42578-0.61328 3.5547-1.8906 9.6289-2.0195zm11.684 10.105c-0.32812 0.625-3.7812 2.0703-10.668 2.0703-6.8828 0-10.336-1.4453-10.668-2.0703v-5.707c2.6797 1.2812 7.4375 1.6836 10.668 1.6836 3.2266 0 7.9844-0.40234 10.668-1.6836z" fill="#c89529"/>
 <path d="m115.3 97.91c-4.7148 0-12.699 0.85547-12.699 4.0625v8.1289c0 3.207 7.9805 4.0625 12.699 4.0625 4.7148 0 12.699-0.85547 12.699-4.0625v-8.1289c0-3.207-7.9805-4.0625-12.699-4.0625zm-1.0156 6.082c-5.6445-0.12891-9.1602-1.3203-9.6289-2.0195 0.42188-0.60938 3.5508-1.8906 9.6289-2.0195zm2.0312 0v-4.0391c6.0781 0.12891 9.207 1.4102 9.6289 2.0195-0.46875 0.69922-3.9805 1.8906-9.6289 2.0195z" fill="#c89529"/>
 <path d="m111.88 117.25h-17.473c-1.4375 0-2.7891 0.55859-3.8047 1.5742-1.0156 1.0156-1.5742 2.3672-1.5742 3.8008 0 2.9648 2.4141 5.3789 5.3789 5.3789h17.473c1.4375 0 2.7891-0.55859 3.8047-1.5742s1.5742-2.3672 1.5742-3.8047c0-2.9648-2.4102-5.375-5.3789-5.375zm2.3672 7.7422c-0.63281 0.63281-1.4727 0.98047-2.3672 0.98047h-7.7188v-6.6914h7.7188c1.8477 0 3.3477 1.5 3.3477 3.3438 0 0.89453-0.34766 1.7344-0.98047 2.3672z" fill="#c89529"/>
 <path d="m77.152 106.25h17.477c1.4375 0 2.7852-0.55859 3.8008-1.5742 1.0156-1.0156 1.5742-2.3672 1.5742-3.8008 0-2.9648-2.4102-5.3789-5.375-5.3789h-17.477c-1.4375 0-2.7891 0.55859-3.8047 1.5742s-1.5742 2.3672-1.5742 3.8047c0 2.9648 2.4141 5.375 5.3789 5.375zm-2.3672-7.7422c0.63281-0.63281 1.4727-0.98047 2.3672-0.98047h7.7188v6.6914h-7.7188c-1.8477 0-3.3477-1.5-3.3477-3.3438 0-0.89453 0.34766-1.7344 0.98047-2.3672z" fill="#c89529"/>
</svg>
