<?xml version="1.0" encoding="UTF-8"?>
<svg width="128pt" height="128pt" version="1.1" viewBox="0 0 128 128" xmlns="http://www.w3.org/2000/svg">
 <path d="m60.574 40.008c0 9.4609-6.1328 17.133-13.703 17.133-7.5703 0-13.707-7.6719-13.707-17.133 0-9.457 6.1367-17.129 13.707-17.129 7.5703 0 13.703 7.6719 13.703 17.129z" fill="#c89529"/>
 <path d="m94.836 40.008c0 9.4609-6.1367 17.133-13.707 17.133-7.5703 0-13.703-7.6719-13.703-17.133 0-9.457 6.1328-17.129 13.703-17.129 7.5703 0 13.707 7.6719 13.707 17.129z" fill="#c89529"/>
 <path d="m36.59 67.418c0 7.5703-4.6016 13.707-10.281 13.707-5.6758 0-10.277-6.1367-10.277-13.707 0-7.5703 4.6016-13.707 10.277-13.707 5.6797 0 10.281 6.1367 10.281 13.707z" fill="#c89529"/>
 <path d="m91.406 88.832c0 7.8477-1.3711 12.367-4.4531 14.699-1.5742 1.1641-3.2891 1.5742-5.1055 1.5742-2.4688 0-5.1055-0.78906-7.8477-1.6094-3.0859-0.89062-6.543-1.9219-10.004-1.9219-3.4609 0-6.9219 1.0273-10.004 1.9219-4.7617 1.4414-9.2852 2.7734-12.949 0.035156-3.0859-2.3281-4.4531-6.8516-4.4531-14.699 0-15.59 12.301-28.266 27.406-28.266 15.109 0 27.41 12.68 27.41 28.266z" fill="#c89529"/>
 <path d="m111.97 67.418c0 7.5703-4.6016 13.707-10.277 13.707-5.6797 0-10.281-6.1367-10.281-13.707 0-7.5703 4.6016-13.707 10.281-13.707 5.6758 0 10.277 6.1367 10.277 13.707z" fill="#c89529"/>
</svg>
