<?xml version="1.0" encoding="UTF-8"?>
<svg width="128pt" height="128pt" version="1.1" viewBox="0 0 128 128" xmlns="http://www.w3.org/2000/svg">
 <path d="m40 16c-1.4766 0-2.6641 1.1953-2.6641 2.6641v2.6719h-8c-7.3398 0-13.336 5.9883-13.336 13.328v64c0 7.3398 5.9961 13.336 13.336 13.336h69.336c7.3359 0 13.328-5.9961 13.328-13.336v-64c0-7.3398-5.9961-13.328-13.336-13.328h-8v-2.6719c0-1.4688-1.1914-2.6641-2.6641-2.6641-1.4766 0-2.6641 1.1953-2.6641 2.6641v2.6719h-42.672v-2.6719c0-1.4688-1.1914-2.6641-2.6641-2.6641zm-10.664 10.664h8v6.0664c-1.5898 0.92969-2.6719 2.6562-2.6719 4.6055 0 2.9141 2.4219 5.3359 5.3359 5.3359s5.3359-2.4219 5.3359-5.3359c0-1.9492-1.0781-3.6758-2.6719-4.6055v-6.0664h42.664l0.003906 6.0664c-1.5898 0.92969-2.6719 2.6562-2.6719 4.6055 0 2.9141 2.4219 5.3359 5.3359 5.3359 2.9141 0 5.3359-2.4219 5.3359-5.3359 0-1.9492-1.0781-3.6758-2.6719-4.6055v-6.0664h8c4.4805 0 8 3.5234 8 8v13.336h-85.328v-13.336c0-4.4766 3.5195-8 8-8zm34.664 32c11.75 0 21.336 9.5859 21.336 21.336s-9.5859 21.336-21.336 21.336-21.336-9.5859-21.336-21.336 9.5859-21.336 21.336-21.336z" fill="#c89529"/>
 <path d="m64 69.336c-1.4766 0-2.6641 1.1914-2.6641 2.6641v8c0 0.70312 0.28125 1.3867 0.78125 1.8867l5.3359 5.3359c1.0391 1.0391 2.7266 1.0391 3.7695 0 1.0391-1.0469 1.0391-2.7305 0-3.7695l-4.5547-4.5547v-6.8945c0-0.70312-0.28125-1.3867-0.78125-1.8867s-1.1797-0.78125-1.8867-0.78125z" fill="#c89529"/>
</svg>
